<?xml version="1.0" encoding="UTF-8"?>
<svg version="1.1" xmlns="http://www.w3.org/2000/svg" width="1419" height="502">
<path d="M0 0 C0.97925949 -0.00570007 1.95851898 -0.01140015 2.967453 -0.01727295 C5.03224632 -0.02666261 7.09705421 -0.03323271 9.16186523 -0.03710938 C12.24686529 -0.04673121 15.33117364 -0.07777863 18.41601562 -0.109375 C35.61809665 -0.20198993 52.4563111 1.36405607 69.10546875 5.890625 C70.05292969 6.14408691 71.00039063 6.39754883 71.9765625 6.65869141 C81.52316998 9.32170926 90.54530615 12.9368966 99.48046875 17.203125 C100.14481934 17.52007324 100.80916992 17.83702148 101.49365234 18.16357422 C132.65812394 33.3253058 157.49570678 57.21634177 174.48046875 87.203125 C174.82851563 87.80350586 175.1765625 88.40388672 175.53515625 89.02246094 C184.58155469 104.67511087 190.42298037 121.39634458 193.48046875 139.203125 C193.5976123 139.88036621 193.71475586 140.55760742 193.83544922 141.25537109 C197.32954168 162.75468296 197.06657955 185.91221573 192.48046875 207.203125 C192.26366455 208.21584473 192.26366455 208.21584473 192.04248047 209.24902344 C189.03596065 222.73341465 184.16967972 235.68872574 176.48046875 247.203125 C175.97 247.99847656 175.45953125 248.79382813 174.93359375 249.61328125 C170.145351 256.80704596 164.42369361 262.96847901 158.48046875 269.203125 C157.53494141 270.22792969 157.53494141 270.22792969 156.5703125 271.2734375 C148.18102937 280.1188755 137.06427327 286.60759531 126.10546875 291.765625 C121.34979961 294.09873541 118.87010102 296.54996197 116.40161133 301.26293945 C115.09247161 305.44156908 115.22181584 309.39293619 115.2421875 313.74609375 C115.22676131 315.64388731 115.21045721 317.54167389 115.19335938 319.43945312 C115.17695886 322.41039501 115.16794532 325.38082352 115.17504883 328.35180664 C115.19578996 350.99168989 115.19578996 350.99168989 107.59887695 359.24804688 C98.65577884 368.00132933 87.55158546 371.10315061 75.35546875 371.578125 C69.91947032 371.47331783 65.86211519 370.4761621 61.48046875 367.203125 C57.11067969 362.60924419 56.36645159 359.17184201 56.26953125 352.9609375 C56.24117187 351.72988281 56.2128125 350.49882812 56.18359375 349.23046875 C56.13166966 346.63686067 56.08735142 344.04308875 56.05078125 341.44921875 C56.004375 339.59876953 56.004375 339.59876953 55.95703125 337.7109375 C55.93721191 336.58316895 55.91739258 335.45540039 55.89697266 334.29345703 C55.43645208 330.8765347 54.53408968 328.95017638 52.48046875 326.203125 C50.45919951 325.39675691 50.45919951 325.39675691 48.29296875 325.390625 C47.03484375 325.32875 45.77671875 325.266875 44.48046875 325.203125 C42.90316456 330.10309488 42.22419611 334.2621948 42.171875 339.45703125 C42.14673154 340.81966604 42.1213333 342.18229615 42.09570312 343.54492188 C42.06695076 345.6600641 42.04288469 347.77512568 42.02416992 349.89038086 C42.00241047 351.95465912 41.96299295 354.01806068 41.921875 356.08203125 C41.90169312 357.91616577 41.90169312 357.91616577 41.88110352 359.78735352 C41.27283077 364.97342542 39.47597721 368.18391396 35.85546875 371.890625 C27.35850648 378.26849014 16.68072898 378.29161245 6.48046875 377.203125 C-0.89864793 375.61087941 -6.42054324 373.00576673 -10.62133789 366.49560547 C-11.87618918 363.2928184 -11.79508992 360.45778994 -11.828125 357.0234375 C-11.85328749 355.60546468 -11.87868548 354.18749603 -11.90429688 352.76953125 C-11.93299159 350.54900213 -11.95702769 348.32854529 -11.97583008 346.10791016 C-11.99759987 343.95437505 -12.03704481 341.80167855 -12.078125 339.6484375 C-12.09830688 337.72281982 -12.09830688 337.72281982 -12.11889648 335.75830078 C-12.55272997 331.90852428 -13.44865193 329.46352817 -15.51953125 326.203125 C-19.0757354 324.88887564 -20.76124964 324.89291889 -24.26953125 326.328125 C-26.9241005 328.54026604 -27.47941607 329.93559882 -28.51953125 333.203125 C-28.8181348 336.08296109 -28.8181348 336.08296109 -28.79296875 339.1328125 C-28.81359375 340.25816406 -28.83421875 341.38351562 -28.85546875 342.54296875 C-28.88142329 344.89185443 -28.89970461 347.24083794 -28.91015625 349.58984375 C-29.04835461 356.30781955 -29.36128512 360.80783791 -33.51953125 366.203125 C-39.21330715 371.07280175 -46.04322034 371.62171428 -53.2265625 371.54296875 C-63.93352422 370.43797982 -73.32238187 364.07272743 -80.39453125 356.203125 C-88.3936525 344.91024794 -86.60189581 331.39929252 -86.3046875 318.21875 C-86.20948859 309.59892106 -86.25464273 302.38498579 -91.703125 295.40625 C-95.13713088 292.72000961 -98.67709844 290.85938434 -102.58203125 288.953125 C-110.24141599 285.05926163 -116.85195967 280.65746816 -123.51953125 275.203125 C-124.19371094 274.66945313 -124.86789063 274.13578125 -125.5625 273.5859375 C-130.07696408 269.89862688 -133.79266997 265.66893291 -137.51953125 261.203125 C-138.15890625 260.48640625 -138.79828125 259.7696875 -139.45703125 259.03125 C-145.66503711 251.80474318 -149.57588601 243.79424508 -153.51953125 235.203125 C-154.00550781 234.16929687 -154.49148437 233.13546875 -154.9921875 232.0703125 C-172.03946028 193.80518033 -167.3037058 142.2779938 -153.3671875 103.76953125 C-145.63819972 83.88317228 -133.83655132 65.83029926 -118.92773438 50.64648438 C-117.61942758 49.30551527 -116.34151791 47.93507242 -115.06640625 46.5625 C-86.17386712 16.13923032 -41.37583861 0.19311089 0 0 Z M-97.51953125 154.203125 C-108.74166107 169.23059906 -111.79487681 189.16834576 -109.19873047 207.46386719 C-106.57026542 221.65055215 -100.95226085 233.8459334 -89.3359375 242.90625 C-80.8517228 248.48754814 -70.37149856 248.19467491 -60.51953125 247.203125 C-51.25599331 244.79929553 -44.06811836 237.65428643 -39.28515625 229.58984375 C-29.55243169 211.96648866 -28.09008654 191.98309774 -32.546875 172.5390625 C-35.7704327 161.48316582 -42.19488193 151.48808052 -52.13671875 145.421875 C-68.10834932 137.25277871 -85.74906175 140.61688435 -97.51953125 154.203125 Z M72.609375 153.42578125 C61.04730313 169.11538845 58.22353555 187.37739862 60.78515625 206.47460938 C63.10315626 219.49561962 68.27699177 232.40330094 78.48046875 241.203125 C88.31589174 247.4647607 99.03176465 248.82703176 110.48828125 246.625 C120.60367504 243.45493357 128.14752252 236.19722192 133.171875 226.98828125 C137.86554525 216.99846965 140.50831079 207.1898417 141.48046875 196.203125 C141.60615234 194.96369141 141.60615234 194.96369141 141.734375 193.69921875 C142.47294518 179.61873555 137.26558449 164.61600463 128.29296875 153.953125 C119.92747155 145.12981452 111.09424339 141.37229633 99.10546875 140.828125 C88.7159975 141.06061666 79.29524835 145.48368953 72.609375 153.42578125 Z M1.91796875 225.03125 C-5.67182416 234.75567217 -15.32314611 248.3209352 -14.51953125 261.203125 C-13.31270315 265.53350818 -12.15826117 267.62381182 -8.83203125 270.640625 C-4.89249321 272.49889766 -1.75646035 273.01494536 2.48046875 272.203125 C4.02172045 271.56270835 5.54308798 270.87270966 7.04296875 270.140625 C11.24059731 268.09970904 13.88779326 267.85233809 18.48046875 269.203125 C19.09921875 269.739375 19.71796875 270.275625 20.35546875 270.828125 C23.40544738 272.80164058 25.71221677 272.37828552 29.2265625 271.83984375 C33.0512844 270.75937638 34.79132852 269.15462038 37.48046875 266.203125 C40.26464325 260.9979292 39.62630485 255.81606125 38.48046875 250.203125 C36.2868299 243.20954371 32.84873585 236.69118049 29.48046875 230.203125 C28.82046875 230.203125 28.16046875 230.203125 27.48046875 230.203125 C27.27421875 229.5225 27.06796875 228.841875 26.85546875 228.140625 C24.85857018 223.87452351 21.78470432 219.35524278 17.48046875 217.203125 C9.82058745 216.15176874 6.5979114 219.5557171 1.91796875 225.03125 Z " fill="#FFFFFF" transform="translate(270.51953125,113.796875)"/>
<path d="M0 0 C1.34928589 0.00323273 1.34928589 0.00323273 2.72583008 0.00653076 C36.92108687 0.13770104 68.86497721 7.02223019 99.75 21.75 C100.87970215 22.28761963 102.0094043 22.82523926 103.17333984 23.37915039 C110.40965691 26.90468577 117.17430143 30.85857165 123.875 35.3125 C124.94492187 35.99957031 126.01484375 36.68664063 127.1171875 37.39453125 C141.30126494 46.71730025 155.15721612 57.1599759 166.11328125 70.23828125 C168.2305866 72.73116183 170.45921453 75.10588864 172.6875 77.5 C197.47793519 104.83304392 214.75927654 138.75534186 224.53051758 174.18139648 C225.2822121 176.90173843 226.06277272 179.60966161 226.875 182.3125 C227.18993408 183.37694336 227.18993408 183.37694336 227.51123047 184.46289062 C228.71760074 187.89633702 229.64440181 189.18202997 232.84375 190.9921875 C234.0090625 191.38664063 235.174375 191.78109375 236.375 192.1875 C251.69475414 198.0273752 260.1334302 209.62237746 266.6875 224.125 C272.44272197 238.96112585 274.11102013 254.20227473 274.125 270 C274.12601212 271.02770508 274.12601212 271.02770508 274.12704468 272.07617188 C274.08704486 297.74783299 270.50886619 323.96517497 251.875 343.3125 C251.215 343.3125 250.555 343.3125 249.875 343.3125 C249.875 343.9725 249.875 344.6325 249.875 345.3125 C239.73552792 355.47879608 225.60746338 361.22241879 211.5 361.6875 C204.98242983 361.5707674 199.3707028 361.02415002 193.875 357.3125 C188.13213401 351.35780699 186.56257578 346.82030033 186.63427734 338.66455078 C187.02137952 333.27417261 188.56489797 328.38065624 190.1875 323.25 C193.34070736 312.65430745 195.62185486 302.29154775 196.875 291.3125 C197.07029297 289.66314453 197.07029297 289.66314453 197.26953125 287.98046875 C202.92616938 226.81335509 186.2753892 160.99897045 147.5 112.6875 C113.86456405 72.85606269 68.50709076 46.99019841 15.96044922 42.51904297 C-33.22444882 39.2265581 -80.65732441 52.39295236 -118.14453125 84.93359375 C-120.67330867 87.19444315 -123.14682098 89.50859522 -125.59814453 91.85302734 C-126.62815775 92.83758427 -127.66312459 93.8169814 -128.70263672 94.79150391 C-142.57141158 107.82536925 -153.57362991 122.89555809 -163.125 139.3125 C-163.47369141 139.90675781 -163.82238281 140.50101563 -164.18164062 141.11328125 C-174.16594231 158.33286083 -181.0057871 177.13241516 -186.125 196.3125 C-186.34639648 197.12976563 -186.56779297 197.94703125 -186.79589844 198.7890625 C-198.20747915 241.55316528 -200.71041998 287.43542637 -186.17578125 329.734375 C-183.94708549 337.32353975 -183.78175695 343.07111879 -187.125 350.3125 C-191.04470378 356.61202393 -197.15979501 359.37027938 -204.125 361.3125 C-221.44782944 362.73452331 -235.44882704 358.79390584 -248.9375 347.5 C-253.44842963 343.26641505 -256.90200815 338.57618015 -260.125 333.3125 C-260.57617188 332.57773437 -261.02734375 331.84296875 -261.4921875 331.0859375 C-275.69683987 305.41169005 -276.22769002 266.25853942 -269.125 238.3125 C-267.53508797 232.7875863 -265.46945894 227.55714147 -263.125 222.3125 C-262.48111328 220.83910156 -262.48111328 220.83910156 -261.82421875 219.3359375 C-255.95362547 207.31767278 -245.61396048 196.38244336 -233.125 191.3125 C-230.8029719 190.90785073 -228.46929427 190.55712201 -226.125 190.3125 C-225.84849609 188.92417969 -225.84849609 188.92417969 -225.56640625 187.5078125 C-222.64877131 173.7035325 -218.0170884 160.52700248 -213.125 147.3125 C-212.80015625 146.43239258 -212.4753125 145.55228516 -212.140625 144.64550781 C-201.9106991 117.45601195 -184.66467919 92.92894365 -165.1796875 71.58984375 C-163.41934202 69.6387384 -161.73315677 67.65236456 -160.0625 65.625 C-156.76485222 61.76280926 -153.00116293 58.57864385 -149.125 55.3125 C-148.15304688 54.46429688 -147.18109375 53.61609375 -146.1796875 52.7421875 C-138.84928511 46.37163847 -131.27394457 40.61598985 -123.125 35.3125 C-122.15747803 34.67078857 -122.15747803 34.67078857 -121.17041016 34.01611328 C-96.13850616 17.51632752 -66.81218617 6.49972997 -37.125 2.3125 C-35.90296875 2.13662354 -34.6809375 1.96074707 -33.421875 1.77954102 C-22.2715846 0.26872831 -11.24191329 -0.04869447 0 0 Z " fill="#FFFFFF" transform="translate(285.125,16.6875)"/>
<path d="M0 0 C11.55 0 23.1 0 35 0 C56.375 50.445 56.375 50.445 66 74 C70.70403441 65.10012327 74.57006378 55.98848487 78.29388428 46.64782715 C79.59542707 43.38370905 80.90843665 40.12424611 82.22103882 36.86456299 C82.87846457 35.2319128 83.53538988 33.59906101 84.19180298 31.96600342 C87.04318472 24.87597873 89.94061198 17.80613874 92.875 10.75 C93.28524414 9.75774414 93.69548828 8.76548828 94.11816406 7.74316406 C94.67455566 6.40850098 94.67455566 6.40850098 95.2421875 5.046875 C95.5604248 4.28213867 95.87866211 3.51740234 96.20654297 2.72949219 C97 1 97 1 98 0 C109.22 0 120.44 0 132 0 C132 51.15 132 102.3 132 155 C121.11 155 110.22 155 99 155 C98 154 98 154 97.88647461 151.22468567 C97.89432983 149.36320137 97.89432983 149.36320137 97.90234375 147.46411133 C97.90453415 146.43959366 97.90453415 146.43959366 97.9067688 145.39437866 C97.91058418 143.90582881 97.9167105 142.41728356 97.92483521 140.92875099 C97.93756241 138.57046733 97.94410586 136.21223973 97.94897461 133.85392761 C97.96237266 127.99145637 97.98648323 122.12903776 98.01037598 116.26660156 C98.03013967 111.32281987 98.04577268 106.37905845 98.05593872 101.43524742 C98.06240381 99.11652897 98.07491682 96.79789355 98.08764648 94.47920227 C98.09128182 93.04708935 98.0946332 91.61497567 98.09765625 90.18286133 C98.10551147 88.31541008 98.10551147 88.31541008 98.11352539 86.41023254 C98.00600285 83.18032198 97.61352121 80.16895608 97 77 C96.78337708 77.56883408 96.56675415 78.13766815 96.34356689 78.72373962 C94.07512002 84.67902517 91.80319174 90.63297422 89.52929688 96.58618164 C88.68271166 98.80394408 87.83699522 101.02203837 86.9921875 103.24047852 C85.77315477 106.44115819 84.55093505 109.64060559 83.328125 112.83984375 C82.95504211 113.82145981 82.58195923 114.80307587 82.1975708 115.81443787 C79.97148577 121.62766772 77.59468492 127.34139379 75 133 C72.22813012 133.10787818 69.46044463 133.18723327 66.6875 133.25 C65.90181641 133.28351563 65.11613281 133.31703125 64.30664062 133.3515625 C63.54931641 133.36445313 62.79199219 133.37734375 62.01171875 133.390625 C61.31522217 133.41157227 60.61872559 133.43251953 59.90112305 133.45410156 C57.14840092 132.79658735 56.54857623 131.32130101 55 129 C54.25340378 127.4555781 53.56123149 125.88407125 52.9152832 124.29492188 C52.53511551 123.36715942 52.15494781 122.43939697 51.76325989 121.48352051 C51.16308296 119.99120911 51.16308296 119.99120911 50.55078125 118.46875 C50.13330124 117.44068237 49.71582123 116.41261475 49.28569031 115.35339355 C48.40616864 113.18259349 47.52967659 111.01056381 46.65600586 108.83740234 C45.31601972 105.50874334 43.96237233 102.18587252 42.60742188 98.86328125 C41.75437772 96.75293973 40.90213675 94.64227333 40.05078125 92.53125 C39.64459061 91.53637573 39.23839996 90.54150146 38.81990051 89.51647949 C38.4491893 88.58871704 38.07847809 87.66095459 37.6965332 86.70507812 C37.36804886 85.89107544 37.03956451 85.07707275 36.7011261 84.23840332 C36 82 36 82 36 78 C35.34 78 34.68 78 34 78 C34 103.41 34 128.82 34 155 C22.78 155 11.56 155 0 155 C0 103.85 0 52.7 0 0 Z " fill="#FFFFFF" transform="translate(617,106)"/>
<path d="M0 0 C69.79891304 0 69.79891304 0 87 15 C96.9831553 25.11525755 100.2388514 37.42368203 100.17626953 51.15087891 C100.00512301 64.26070227 95.93366422 75.55627754 86.8125 85.30859375 C84.06062874 87.87661155 81.15024675 89.942696 78 92 C80.24199382 99.15656307 83.0568145 105.9114466 86.125 112.75 C87.10629927 114.95796441 88.08675338 117.16630461 89.06640625 119.375 C89.55641113 120.4784375 90.04641602 121.581875 90.55126953 122.71875 C92.7568327 127.71416101 94.91480646 132.72948729 97.0625 137.75 C97.43197754 138.61206055 97.80145508 139.47412109 98.18212891 140.36230469 C99.12681453 142.57262967 100.06394655 144.78601098 101 147 C101.41121094 147.95390625 101.82242187 148.9078125 102.24609375 149.890625 C103 152 103 152 103 155 C91.78 155 80.56 155 69 155 C64.90568718 146.81137436 61.3011696 139.50751118 58.17578125 131.078125 C56.72322241 127.27541283 55.04593667 123.60635369 53.3359375 119.9140625 C51.74324022 116.43993335 50.20571505 112.94469793 48.6875 109.4375 C48.17574219 108.26058594 47.66398437 107.08367187 47.13671875 105.87109375 C46 103 46 103 46 101 C41.71 101 37.42 101 33 101 C33 118.82 33 136.64 33 155 C22.11 155 11.22 155 0 155 C0 103.85 0 52.7 0 0 Z M33 32 C33 44.54 33 57.08 33 70 C46.73145153 70.69719083 46.73145153 70.69719083 58.875 65.5234375 C63.36815054 60.79266843 65.01192909 55.90081197 64.9921875 49.4453125 C64.66547285 44.6582326 64.20353161 40.75586464 61 37 C51.74614805 29.91194319 46.07587134 32 33 32 Z " fill="#FFFFFF" transform="translate(1201,106)"/>
<path d="M0 0 C1.51726685 0.00845947 1.51726685 0.00845947 3.06518555 0.01708984 C15.90821686 0.22595325 26.41658008 2.73978326 36.10546875 11.57421875 C43.80970553 19.5800896 47.83650341 28.44974436 47.6875 39.625 C47.67847656 40.50800781 47.66945313 41.39101562 47.66015625 42.30078125 C47.64855469 42.96464844 47.63695312 43.62851563 47.625 44.3125 C43.73005035 46.25997483 39.09112189 46.34772187 34.8125 46.9375 C33.81412109 47.08445313 32.81574219 47.23140625 31.78710938 47.3828125 C30.33594727 47.58390625 30.33594727 47.58390625 28.85546875 47.7890625 C27.53131958 47.975896 27.53131958 47.975896 26.18041992 48.16650391 C23.47437889 48.32110528 21.24840636 47.95560445 18.625 47.3125 C18.38716797 46.31669922 18.38716797 46.31669922 18.14453125 45.30078125 C16.65666731 39.66991497 15.34327933 36.06292716 10.625 32.3125 C7.71258593 30.85629297 5.11823846 31.14210569 1.875 31.125 C0.66328125 31.11082031 -0.5484375 31.09664062 -1.796875 31.08203125 C-5.38250544 31.31298343 -8.09063276 31.87010727 -11.375 33.3125 C-13.54501928 37.55390132 -13.96274893 41.61050853 -13.375 46.3125 C-9.66207681 51.77569664 -5.46960344 54.29028115 0.375 57.1875 C1.20829834 57.61458252 2.04159668 58.04166504 2.90014648 58.48168945 C8.4335426 61.29367455 14.04593524 63.91422975 19.6875 66.5 C26.19110422 69.48882705 31.98846535 72.85644713 37.625 77.3125 C38.58792969 78.01439453 38.58792969 78.01439453 39.5703125 78.73046875 C47.83278133 85.11510375 52.38218862 94.95919935 54.09375 105.0859375 C55.76485299 119.55617024 52.3400006 132.31919563 43.65625 143.94921875 C34.10522932 154.44465005 19.97665844 159.68564283 6.02539062 160.45605469 C-10.94968172 161.04930116 -26.15769462 160.01558176 -40.09375 149.203125 C-49.9388079 139.94877057 -52.66487548 129.25661326 -54.375 116.3125 C-54.41648998 114.64634984 -54.43620949 112.97804231 -54.375 111.3125 C-50.84114228 109.75960479 -47.67427479 108.92939607 -43.84765625 108.4609375 C-42.80802734 108.33203125 -41.76839844 108.203125 -40.69726562 108.0703125 C-39.62154297 107.94398438 -38.54582031 107.81765625 -37.4375 107.6875 C-36.36564453 107.5534375 -35.29378906 107.419375 -34.18945312 107.28125 C-29.2095951 106.67688333 -24.39811588 106.24298553 -19.375 106.3125 C-19.27703125 107.18132812 -19.1790625 108.05015625 -19.078125 108.9453125 C-18.22943452 115.48608221 -17.55086631 120.16226489 -13.375 125.3125 C-13.375 125.9725 -13.375 126.6325 -13.375 127.3125 C-5.91180468 129.52381713 0.89078077 130.47561746 8.4375 128.125 C12.51494983 125.80645009 15.79382601 123.89837464 17.29296875 119.234375 C18.08305641 114.63465674 17.88660637 110.97520126 15.140625 106.984375 C8.89611639 100.09610262 0.29549988 96.66387642 -7.98046875 92.85986328 C-23.33234486 85.71029245 -40.62754008 76.35405859 -47.3359375 59.96484375 C-51.30250612 47.90138048 -50.95133438 33.76048865 -45.375 22.3125 C-40.01463746 13.0092568 -31.5394604 5.71972439 -21.375 2.3125 C-14.25563683 0.44684858 -7.33723893 -0.04284698 0 0 Z " fill="#FFFFFF" transform="translate(935.375,104.6875)"/>
<path d="M0 0 C11.88 0 23.76 0 36 0 C45.7012262 31.08352068 54.75774022 62.36161357 63.83203125 93.6328125 C64.0346759 94.33110672 64.23732056 95.02940094 64.44610596 95.74885559 C66.44614135 102.64144693 68.44478032 109.53443895 70.43908787 116.42868996 C71.00190617 118.37393737 71.56517035 120.31905511 72.12858582 122.26412964 C72.81513721 124.63473538 73.50085108 127.00558393 74.1855011 129.3767395 C74.49771103 130.45430511 74.80992096 131.53187073 75.1315918 132.64208984 C75.43229584 133.68194031 75.73299988 134.72179077 76.04281616 135.79315186 C76.72190473 138.06829883 77.43095422 140.33459934 78.16055298 142.59405518 C78.53658661 143.76007263 78.91262024 144.92609009 79.30004883 146.12744141 C79.822882 147.70859238 79.822882 147.70859238 80.35627747 149.32168579 C81 152 81 152 80 155 C68.12 155 56.24 155 44 155 C43.195625 152.215625 42.39125 149.43125 41.5625 146.5625 C41.31056885 145.70470947 41.0586377 144.84691895 40.79907227 143.96313477 C40.59854248 143.25471436 40.3980127 142.54629395 40.19140625 141.81640625 C39.88505249 140.75595093 39.88505249 140.75595093 39.57250977 139.67407227 C38.75048767 135.83458058 38.43360959 131.90248631 38 128 C24.8 128.33 11.6 128.66 -2 129 C-3.93215375 136.80771071 -3.93215375 136.80771071 -5.85913086 144.61669922 C-6.22083374 146.07100342 -6.22083374 146.07100342 -6.58984375 147.5546875 C-6.83597412 148.54968262 -7.08210449 149.54467773 -7.33569336 150.56982422 C-8 153 -8 153 -9 155 C-20.22 155 -31.44 155 -43 155 C-41.87642459 146.01139668 -41.87642459 146.01139668 -40.96337891 142.98510742 C-40.6449855 141.90426628 -40.6449855 141.90426628 -40.32015991 140.80158997 C-40.08302277 140.01499496 -39.84588562 139.22839996 -39.6015625 138.41796875 C-36.63012914 128.2836249 -33.81075338 118.11187333 -31.0234375 107.92578125 C-30.56794731 106.2634984 -30.11238001 104.60123668 -29.65673828 102.93899536 C-28.71351435 99.49762368 -27.77066434 96.05614983 -26.82800293 92.61462402 C-13.35873565 43.45209671 -13.35873565 43.45209671 -6.75 20.25 C-6.50997253 19.40241119 -6.26994507 18.55482239 -6.02264404 17.68154907 C-5.36852122 15.37493406 -4.70893627 13.06997211 -4.046875 10.765625 C-3.69463867 9.53618164 -3.34240234 8.30673828 -2.97949219 7.04003906 C-2 4 -2 4 0 0 Z M17 51 C16.86441177 51.54235291 16.72882355 52.08470581 16.58912659 52.64349365 C12.72608439 68.09566243 8.8630422 83.54783122 5 99 C13.25 99 21.5 99 30 99 C29.484375 96.834375 28.96875 94.66875 28.4375 92.4375 C25.1764897 78.6518628 22.10712786 64.82095531 19 51 C18.34 51 17.68 51 17 51 Z " fill="#FFFFFF" transform="translate(802,106)"/>
<path d="M0 0 C26.73 0 53.46 0 81 0 C81 10.56 81 21.12 81 32 C64.5 32 48 32 31 32 C31 41.57 31 51.14 31 61 C45.85 61 60.7 61 76 61 C76.185625 65.57875 76.37125 70.1575 76.5625 74.875 C76.62381104 76.31858887 76.68512207 77.76217773 76.74829102 79.24951172 C76.81294556 80.94744873 76.81294556 80.94744873 76.87890625 82.6796875 C76.94960327 84.42354736 76.94960327 84.42354736 77.02172852 86.20263672 C77 89 77 89 76 91 C61.15 91 46.3 91 31 91 C31 102.55 31 114.1 31 126 C47.5 126 64 126 81 126 C81 135.57 81 145.14 81 155 C54.27 155 27.54 155 0 155 C-1.09746267 151.707612 -1.1080063 149.33462743 -1.08229065 145.86872864 C-1.07525116 144.58565323 -1.06821167 143.30257782 -1.06095886 141.98062134 C-1.04797633 140.55584631 -1.03489627 139.13107216 -1.02172852 137.70629883 C-1.01158594 136.20834132 -1.00189224 134.71038072 -0.99261475 133.2124176 C-0.96613159 129.14243452 -0.93335251 125.0725234 -0.89946485 121.00259614 C-0.86512397 116.75051013 -0.83654301 112.49838556 -0.80735779 108.2462616 C-0.75120228 100.1927369 -0.68984738 92.1392605 -0.62663645 84.08578843 C-0.54152737 73.2042066 -0.46442561 62.32256825 -0.38688183 51.44093037 C-0.26447849 34.29389988 -0.13135569 17.14696965 0 0 Z " fill="#FFFFFF" transform="translate(1103,106)"/>
<path d="M0 0 C0.92212784 0.00359528 1.84425568 0.00719055 2.79432678 0.01089478 C4.24295105 0.01067574 4.24295105 0.01067574 5.72084045 0.01045227 C8.92952175 0.01115182 12.1381458 0.0189462 15.34681702 0.02676392 C17.56499195 0.02862794 19.78316729 0.03005192 22.00134277 0.03105164 C27.85231148 0.03487801 33.70325554 0.04470931 39.55421448 0.05575562 C45.51958381 0.06596717 51.4849571 0.07054871 57.45033264 0.07559204 C69.16453795 0.08633147 80.87871846 0.10392924 92.59291077 0.12442017 C92.59291077 10.68442017 92.59291077 21.24442017 92.59291077 32.12442017 C82.69291077 32.12442017 72.79291077 32.12442017 62.59291077 32.12442017 C62.59291077 72.71442017 62.59291077 113.30442017 62.59291077 155.12442017 C51.37291077 155.12442017 40.15291077 155.12442017 28.59291077 155.12442017 C28.59291077 114.53442017 28.59291077 73.94442017 28.59291077 32.12442017 C16.71291077 32.12442017 4.83291077 32.12442017 -7.40708923 32.12442017 C-7.42771423 27.03004517 -7.44833923 21.93567017 -7.46958923 16.68692017 C-7.47869324 15.0776062 -7.48779724 13.46829224 -7.49717712 11.81021118 C-7.49967468 10.55393921 -7.50217224 9.29766724 -7.50474548 8.00332642 C-7.5099823 6.70983276 -7.51521912 5.41633911 -7.52061462 4.08364868 C-7.31471516 -1.28346391 -4.73577317 0.00780236 0 0 Z " fill="#FFFFFF" transform="translate(998.4070892333984,105.87557983398438)"/>
<path d="M0 0 C7.92 0 15.84 0 24 0 C25.171875 3.3203125 26.34375 6.640625 27.515625 9.9609375 C28.89300093 13.77212332 30.39242294 17.52925091 31.90722656 21.28759766 C33.87913611 26.18212739 35.81526311 31.09068391 37.75 36 C38.16121094 37.03511719 38.57242188 38.07023437 38.99609375 39.13671875 C39.38410156 40.12285156 39.77210938 41.10898437 40.171875 42.125 C40.5234668 43.01445312 40.87505859 43.90390625 41.23730469 44.8203125 C42 47 42 47 42 49 C42.66 49 43.32 49 44 49 C44.10698715 48.45613144 44.2139743 47.91226288 44.32420349 47.35191345 C45.50872798 41.6541636 47.17614423 36.32053817 49.22265625 30.87890625 C49.52819931 30.05293442 49.83374237 29.22696259 50.14854431 28.3759613 C51.11441554 25.76941307 52.08845013 23.16600133 53.0625 20.5625 C53.7199117 18.78990285 54.37681734 17.01711792 55.03320312 15.24414062 C59.80269454 2.39461091 59.80269454 2.39461091 61 0 C68.92 0 76.84 0 85 0 C85 32.01 85 64.02 85 97 C78.07 97 71.14 97 64 97 C63.67 80.83 63.34 64.66 63 48 C58.80374796 60.12894988 58.80374796 60.12894988 54.62353516 72.26342773 C54.09596042 73.77868612 53.5678405 75.29375484 53.0390625 76.80859375 C52.76860107 77.60237427 52.49813965 78.39615479 52.21948242 79.21398926 C50.2281436 84.8859282 50.2281436 84.8859282 48 86 C45.7927077 86.07092842 43.58332548 86.08415025 41.375 86.0625 C40.18648437 86.05347656 38.99796875 86.04445313 37.7734375 86.03515625 C36.40058594 86.01775391 36.40058594 86.01775391 35 86 C30.45039547 74.06770388 26.22084439 62.0595554 22 50 C21.67 65.51 21.34 81.02 21 97 C14.07 97 7.14 97 0 97 C0 64.99 0 32.98 0 0 Z " fill="#FFFFFF" transform="translate(617,297)"/>
<path d="M0 0 C42.67567568 0 42.67567568 0 53.75 9.3125 C60.0835128 16.87752917 61.82700571 25.29745092 61 35 C59.26193121 44.92999597 56.17720071 50.90570425 49 58 C49.4846875 59.07483643 49.969375 60.14967285 50.46875 61.25708008 C52.26344463 65.24089252 54.0507979 69.2279624 55.8359375 73.21606445 C56.60997467 74.94255047 57.38600699 76.66814342 58.1640625 78.39282227 C59.28128855 80.87024252 60.39132894 83.35077297 61.5 85.83203125 C62.0249707 86.98998955 62.0249707 86.98998955 62.56054688 88.17134094 C65 93.65838488 65 93.65838488 65 97 C57.41 97 49.82 97 42 97 C31.13157895 71.39473684 31.13157895 71.39473684 28 62 C24.535 62.495 24.535 62.495 21 63 C21 74.22 21 85.44 21 97 C14.07 97 7.14 97 0 97 C0 64.99 0 32.98 0 0 Z M21 19 C20.67 27.25 20.34 35.5 20 44 C31.04959404 45.08295516 31.04959404 45.08295516 35.6875 41.625 C39.45606087 37.34717415 39.32945724 34.33428302 39.29296875 28.7734375 C38.86949404 24.76454356 37.66387706 22.97727436 35 20 C30.81537205 17.90768602 25.67855628 19 21 19 Z " fill="#FFFFFF" transform="translate(1308,297)"/>
<path d="M0 0 C7.26 0 14.52 0 22 0 C22.01458252 2.05355713 22.02916504 4.10711426 22.04418945 6.22290039 C22.09463191 13.02433785 22.16124379 19.82554868 22.23571491 26.62676334 C22.28035347 30.74846994 22.31962368 34.87007919 22.34643555 38.99194336 C22.37253391 42.97326569 22.41298178 46.95421207 22.46318626 50.93530083 C22.47981099 52.45060979 22.49135256 53.96598371 22.49761391 55.48137093 C22.50730342 57.61175642 22.53541756 59.74118961 22.56762695 61.87133789 C22.57873001 63.0815712 22.58983307 64.2918045 22.60127258 65.53871155 C23.07812686 69.67820667 24.07294377 72.31009842 26 76 C29.75456567 78.50304378 31.54745934 78.45280074 36 78 C40.17661981 75.98637071 40.17661981 75.98637071 42.65122986 72.28936768 C43.11897007 69.21906665 43.16621576 66.22629142 43.20532227 63.12011719 C43.21522186 62.43678314 43.22512146 61.7534491 43.23532104 61.04940796 C43.26682044 58.79859846 43.29164752 56.54776789 43.31640625 54.296875 C43.33698577 52.73316917 43.35798251 51.16946878 43.37937927 49.60577393 C43.43449686 45.49589449 43.48395148 41.38596572 43.53222656 37.27600098 C43.58251702 33.07978946 43.63816366 28.88364935 43.69335938 24.6875 C43.80081477 16.45839214 43.90179246 8.22922342 44 0 C50.93 0 57.86 0 65 0 C65.09058784 10.01448623 65.16388092 20.02869761 65.20724869 30.04350185 C65.22806943 34.69444005 65.25628555 39.34508192 65.30175781 43.99584961 C65.34541328 48.48923188 65.36917852 52.9823302 65.37950897 57.47590828 C65.38686515 59.18503345 65.40122972 60.89414415 65.42292023 62.60314751 C65.63333728 79.87857552 65.63333728 79.87857552 61 87 C60.46273285 87.84763161 60.46273285 87.84763161 59.91461182 88.71238708 C55.14125942 95.27071211 47.6650689 97.53915874 40 99 C29.46569331 100.13843912 18.30416044 99.94650318 9.66015625 93.1640625 C3.32576448 87.18476321 0.18155441 81.26378775 -0.12025452 72.51347351 C-0.12313115 71.16092039 -0.12054559 69.80834851 -0.11352539 68.45581055 C-0.11367142 67.71380905 -0.11381744 66.97180756 -0.1139679 66.20732117 C-0.11327404 63.7670901 -0.1055064 61.3269364 -0.09765625 58.88671875 C-0.0957902 57.18992657 -0.09436718 55.49313385 -0.09336853 53.79634094 C-0.0895581 49.3395335 -0.07974043 44.88275887 -0.06866455 40.42596436 C-0.0584187 35.87447554 -0.05386412 31.32298141 -0.04882812 26.77148438 C-0.03811681 17.84763955 -0.02053197 8.92382764 0 0 Z " fill="#FFFFFF" transform="translate(711,297)"/>
<path d="M0 0 C1.18758911 0.00241699 1.18758911 0.00241699 2.39916992 0.00488281 C10.73141057 0.17909385 18.22282889 2.23990972 24.1875 8.375 C28.90364088 14.87816862 30.34325846 19.27555997 30.1875 27.375 C27.79280271 27.88104924 25.39698283 28.37999517 23 28.875 C22.32646484 29.01808594 21.65292969 29.16117187 20.95898438 29.30859375 C17.31240207 30.05569842 13.91101043 30.54852282 10.1875 30.375 C9.94515625 29.82070313 9.7028125 29.26640625 9.453125 28.6953125 C9.11796875 27.97085937 8.7828125 27.24640625 8.4375 26.5 C8.11265625 25.78070313 7.7878125 25.06140625 7.453125 24.3203125 C5.92282728 21.96818823 4.82408692 21.2863526 2.1875 20.375 C-1.37520231 20.2313978 -4.69615455 20.74705568 -7.8125 22.5 C-9.452669 25.57531687 -9.23097417 27.96742459 -8.8125 31.375 C-5.9939827 34.82377312 -2.88962354 36.55588364 1.08984375 38.46875 C2.22744141 39.02433594 3.36503906 39.57992187 4.53710938 40.15234375 C5.72111328 40.72082031 6.90511719 41.28929687 8.125 41.875 C10.47021138 43.00469767 12.81276717 44.13992854 15.15234375 45.28125 C16.1899585 45.77947266 17.22757324 46.27769531 18.29663086 46.79101562 C25.11336136 50.52608424 29.17450862 55.25251721 32.1875 62.375 C34.13614699 71.83500136 33.56726222 79.73543929 28.625 88 C24.30965183 94.07928611 18.11370607 98.70036697 10.6640625 100.125 C-1.75323674 101.37848131 -13.18489489 100.81287934 -24.25 94.375 C-29.14826279 88.64044844 -33.16366175 81.8962726 -33.25 74.1875 C-32.8125 70.375 -32.8125 70.375 -31.8125 69.375 C-29.41490614 68.96998106 -27.03523086 68.62091817 -24.625 68.3125 C-23.6340332 68.17618164 -23.6340332 68.17618164 -22.62304688 68.03710938 C-18.6629524 67.51717594 -14.80557162 67.18716203 -10.8125 67.375 C-8.89258639 69.29491361 -8.96737696 72.64328778 -8.5078125 75.24609375 C-7.93650642 77.73918127 -7.93650642 77.73918127 -4.8125 79.375 C0.04006126 80.01213018 4.62008055 80.322742 8.875 77.75 C10.61804644 74.59591596 10.84042967 72.92983933 10.1875 69.375 C6.16582493 64.3356946 1.36182908 62.42000131 -4.5 60 C-26.53783832 50.48036826 -26.53783832 50.48036826 -30.9140625 39.6484375 C-33.18487562 31.37477925 -33.10971366 21.82285698 -29.0078125 14.1640625 C-22.07006514 3.78011384 -12.07673484 -0.02559986 0 0 Z " fill="#FFFFFF" transform="translate(813.8125,295.625)"/>
<path d="M0 0 C7.92 0 15.84 0 24 0 C25.74493195 5.23479585 27.41113295 10.26282901 28.8059082 15.56347656 C29.12666824 16.77634338 29.44742828 17.98921021 29.77790833 19.23883057 C29.94430124 19.87355537 30.11069416 20.50828018 30.28212929 21.16223907 C30.81481136 23.19414255 31.35111504 25.22506227 31.88822937 27.25579834 C33.03289148 31.58634811 34.17280423 35.91814109 35.3125 40.25 C36.80575128 45.92262746 38.30190601 51.59448107 39.80078125 57.265625 C39.98155338 57.9506459 40.16232552 58.63566681 40.34857559 59.34144592 C42.87582605 68.91019892 45.48972665 78.44943429 48.30891418 87.93707275 C49.22432533 91.05208863 50 93.73421941 50 97 C42.74 97 35.48 97 28 97 C24 83.375 24 83.375 24 80 C16.74 80 9.48 80 2 80 C1.67 82.64 1.34 85.28 1 88 C0.34 90.97 -0.32 93.94 -1 97 C-8.59 97 -16.18 97 -24 97 C-21.4692031 86.12588103 -18.84669142 75.28427658 -16.0889225 64.46572113 C-15.46942139 62.03538682 -14.85183544 59.60457215 -14.23466492 57.17364502 C-12.92893282 52.03200824 -11.62082367 46.89097784 -10.3125 41.75 C-8.78386171 35.74236511 -7.25622433 29.73447812 -5.73058128 23.72608185 C-5.12396214 21.33890659 -4.51579853 18.95212841 -3.907547 16.56536865 C-3.53635635 15.10446965 -3.16523347 13.64355343 -2.79418945 12.18261719 C-2.47094193 10.91262878 -2.1476944 9.64264038 -1.81465149 8.33416748 C-1.13982476 5.57226822 -0.55758679 2.78793393 0 0 Z M12 33 C10.24856618 38.75132996 9.02166995 44.53852012 7.875 50.4375 C7.69324219 51.35982422 7.51148438 52.28214844 7.32421875 53.23242188 C6.88016233 55.48776107 6.43971164 57.7438097 6 60 C10.29 60 14.58 60 19 60 C18.36921693 54.26442607 17.38717295 48.73885562 16.0625 43.125 C15.89298828 42.36703125 15.72347656 41.6090625 15.54882812 40.828125 C14.60023305 36.49083601 14.60023305 36.49083601 12 33 Z " fill="#FFFFFF" transform="translate(1131,297)"/>
<path d="M0 0 C46.14099217 0 46.14099217 0 55.6796875 8.49609375 C63.23026348 16.32840764 64.60105677 25.9121173 64.47045898 36.36425781 C64.05681063 46.84334954 60.59785708 55.58745651 53 63 C45.77945891 68.00320957 37.6658826 69.31515789 29.0625 69.125 C25.0715625 69.063125 25.0715625 69.063125 21 69 C21 78.24 21 87.48 21 97 C14.07 97 7.14 97 0 97 C0 64.99 0 32.98 0 0 Z M21 19 C21 29.23 21 39.46 21 50 C31.70330476 50.83894973 31.70330476 50.83894973 39 46 C42.8003789 40.80614884 42.66374922 35.18577395 42 29 C40.74432579 25.16321769 39.43714202 23.42593325 36.5625 20.625 C31.8329642 18.16998964 31.8329642 18.16998964 21 19 Z " fill="#FFFFFF" transform="translate(984,297)"/>
<path d="M0 0 C0.81662109 -0.020625 1.63324219 -0.04125 2.47460938 -0.0625 C11.39011767 -0.11933193 17.44631999 2.33550705 23.9296875 8.4375 C31.06381369 15.79357678 31.6875 23.3498581 31.6875 33.25 C21.2925 33.745 21.2925 33.745 10.6875 34.25 C10.0275 31.94 9.3675 29.63 8.6875 27.25 C6.87911132 23.55478971 6.87911132 23.55478971 3.6875 21.25 C2.04607459 21.10359499 0.3976859 21.02903411 -1.25 21 C-2.12527344 20.97421875 -3.00054688 20.9484375 -3.90234375 20.921875 C-6.3132908 21.06920428 -6.3132908 21.06920428 -8.00390625 22.390625 C-11.61331773 27.51922161 -11.62013135 33.10719949 -11.61328125 39.12109375 C-11.61756638 39.9616481 -11.6218515 40.80220245 -11.62626648 41.66822815 C-11.63198778 43.43904727 -11.63252633 45.20988988 -11.62817383 46.98071289 C-11.62501383 49.67570442 -11.64850007 52.36959704 -11.67382812 55.06445312 C-11.6761015 56.79166529 -11.67680444 58.51888039 -11.67578125 60.24609375 C-11.684991 61.04421982 -11.69420074 61.84234589 -11.70368958 62.66465759 C-11.66063707 67.92398913 -10.7744988 71.57886841 -8.3125 76.25 C-5.996696 78.36730651 -4.49876433 79.19564924 -1.3515625 79.33984375 C1.98389447 79.09805412 4.21756959 78.54679816 7.0625 76.75 C9.08727701 73.63495845 9.56661102 70.82149628 10.09765625 67.17578125 C10.29230469 66.54027344 10.48695313 65.90476562 10.6875 65.25 C14.53817593 63.96644136 17.8082486 64.51207321 21.75 65 C22.48283203 65.07476562 23.21566406 65.14953125 23.97070312 65.2265625 C26.09765625 65.484375 26.09765625 65.484375 29.6875 66.25 C31.6875 69.25 31.6875 69.25 31.62109375 71.37890625 C29.6061787 81.26309581 26.14622001 89.13405452 18.19140625 95.62109375 C9.28624483 101.41431109 -1.86365594 101.2298338 -12.07421875 99.88671875 C-20.11770309 98.03053006 -26.3832157 92.46126133 -31.03515625 85.7734375 C-33.04241038 81.80803638 -33.43006224 77.89837052 -33.56542969 73.49829102 C-33.59505798 72.58286026 -33.62468628 71.6674295 -33.6552124 70.72425842 C-33.68133606 69.74404221 -33.70745972 68.76382599 -33.734375 67.75390625 C-33.76227112 66.72877426 -33.79016724 65.70364227 -33.81890869 64.64744568 C-33.87523779 62.47637504 -33.92886316 60.3052328 -33.97998047 58.1340332 C-34.06144371 54.85501713 -34.16529951 51.57718794 -34.26953125 48.29882812 C-35.04954805 19.26305551 -35.04954805 19.26305551 -26.8515625 9.79296875 C-18.80440999 1.72539199 -10.94646685 0.06814921 0 0 Z " fill="#FFFFFF" transform="translate(917.3125,295.75)"/>
<path d="M0 0 C17.49 0 34.98 0 53 0 C53 6.27 53 12.54 53 19 C42.11 19 31.22 19 20 19 C20 24.61 20 30.22 20 36 C28.91 36 37.82 36 47 36 C47 42.6 47 49.2 47 56 C38.42 56 29.84 56 21 56 C20.67 62.93 20.34 69.86 20 77 C30.89 77 41.78 77 53 77 C53 83.6 53 90.2 53 97 C35.51 97 18.02 97 0 97 C0 64.99 0 32.98 0 0 Z " fill="#FFFFFF" transform="translate(1248,297)"/>
<path d="M0 0 C7.59 0 15.18 0 23 0 C27.5 11.25 27.5 11.25 29.140625 15.7890625 C29.48867187 16.74941406 29.83671875 17.70976562 30.1953125 18.69921875 C30.54335937 19.66472656 30.89140625 20.63023437 31.25 21.625 C31.61351562 22.62917969 31.97703125 23.63335937 32.3515625 24.66796875 C33.23586783 27.11144399 34.11865547 29.55545561 35 32 C35.25692627 31.31486328 35.51385254 30.62972656 35.77856445 29.92382812 C39.51904297 19.94921875 43.25952148 9.97460938 47 0 C54.26 0 61.52 0 69 0 C68.34000977 3.29995113 67.8205138 5.76149713 66.62060547 8.77026367 C66.20414261 9.82373238 66.20414261 9.82373238 65.77926636 10.89848328 C65.47828033 11.64741348 65.17729431 12.39634369 64.8671875 13.16796875 C64.55226349 13.96165359 64.23733948 14.75533844 63.91287231 15.57307434 C62.90421879 18.11281689 61.88981739 20.65021491 60.875 23.1875 C60.21574182 24.84293812 59.55688411 26.49853578 58.8984375 28.15429688 C58.57336716 28.97051514 58.24829681 29.7867334 57.91337585 30.62768555 C57.25454003 32.28720743 56.59897864 33.94803281 55.9466095 35.61010742 C54.36272583 39.6360239 52.73834536 43.62726606 50.97924805 47.58007812 C46.18432244 58.59600343 44.97324393 68.17446836 45.0625 80.125 C45.04933952 81.7773715 45.03307437 83.42972125 45.01367188 85.08203125 C44.96791926 89.0565414 44.98498605 93.02344938 45 97 C38.4 97 31.8 97 25 97 C25.06703125 94.79828125 25.1340625 92.5965625 25.203125 90.328125 C25.55195814 70.15438839 22.83553675 55.72156269 13.67822266 37.48388672 C11.00488271 31.9341979 8.76224439 26.2279674 6.53656006 20.48703003 C5.83121847 18.67313739 5.11135536 16.86491259 4.39111328 15.05688477 C3.95911621 13.95787842 3.52711914 12.85887207 3.08203125 11.7265625 C2.51319214 10.28144287 2.51319214 10.28144287 1.93286133 8.80712891 C1 6 1 6 0 0 Z " fill="#FFFFFF" transform="translate(1171,297)"/>
<path d="M0 0 C6.93 0 13.86 0 21 0 C21 25.41 21 50.82 21 77 C30.57 77 40.14 77 50 77 C50 83.6 50 90.2 50 97 C33.5 97 17 97 0 97 C0 64.99 0 32.98 0 0 Z " fill="#FFFFFF" transform="translate(1055,297)"/>
<path d="M0 0 C6.93 0 13.86 0 21 0 C21 32.01 21 64.02 21 97 C14.07 97 7.14 97 0 97 C0 64.99 0 32.98 0 0 Z " fill="#FFFFFF" transform="translate(853,297)"/>
</svg>
